<?xml version="1.0" encoding="UTF-8"?>
<svg id="Layer_1" data-name="Layer 1" xmlns="http://www.w3.org/2000/svg" viewBox="0 0 6170 3638">
  <defs>
    <style>
      .cls-1 {
        fill: #fff;
      }

      .cls-2 {
        fill: #61378d;
      }

      .cls-3 {
        fill: #ff6e06;
      }
    </style>
  </defs>
  <path class="cls-2" d="m1791.28,1735.65c-36.17-1.49-72.35-3.01-104-16.58-13.57-6.03-30.15-13.57-31.66-27.15-22.61-223.08-7.54-449.18,0-673.77,1.5-16.6-1.51-36.18,7.53-49.76,22.61-33.16,110.04-40.68,150.74-39.19,31.66,0,64.82,0,96.47,9.06,25.63,6.01,61.8,18.07,49.74,42.19-1.5,4.54-3.01,10.55-3.01,15.09,96.47-31.67,206.51-39.21,302.98-12.06,39.19,10.55,73.86,37.68,94.96,72.35,19.59,30.15,31.66,66.32,39.2,100.99,36.17,168.82,9.04,345.18,10.55,517.03,0,15.07-22.61,27.13-36.17,31.65-52.76,18.09-111.55,24.12-167.32,18.09-27.14-4.52-57.28-6.03-81.4-21.1-7.53-4.52-16.58-10.57-16.58-19.61-1.5-84.41,6.03-167.31,7.53-251.74,1.51-94.94,0-191.43-22.61-284.88-3.02-10.57-6.03-21.12-10.55-33.18-25.63,18.11-51.25,34.67-70.85,58.79-22.61,28.66-37.69,63.31-46.73,99.5-12.05,46.71-13.56,96.47-13.56,146.21,0,1.51-3.02,9.06-3.02,10.55,0,85.92,4.53,171.85,13.57,257.77,1.5,15.07-21.11,27.13-36.18,31.65-40.69,13.57-85.91,18.09-129.63,18.09Z"/>
  <path class="cls-2" d="m3067.88,1714.72c-36.17-1.49-72.35-3.01-104-16.58-13.57-6.03-30.15-13.57-31.66-27.15-22.61-223.08-7.54-449.18,0-673.77,1.5-16.6-1.51-36.18,7.53-49.76,22.61-33.16,110.04-40.68,150.74-39.19,31.66,0,64.82,0,96.47,9.06,25.63,6.01,61.8,18.07,49.74,42.19-1.5,4.54-3.01,10.55-3.01,15.09,66.32-22.61,138.68-31.67,208.01-27.15,42.2,1.51,85.92,7.54,125.11,27.15,18.09,9.04,34.67,22.61,49.75,37.68,111.54-34.67,238.17-42.22,352.72-13.57,25.62,7.54,51.25,19.61,72.35,37.68,28.66,24.12,49.76,58.79,63.31,93.47,24.12,64.8,31.67,135.66,36.18,205,6.03,108.53-1.51,217.07,3.01,325.58,0,15.09-21.1,27.15-36.18,31.67-36.16,13.55-75.35,21.12-114.54,21.12-33.16,0-66.34,1.49-96.47-6.05-19.58-6.01-54.26-13.57-54.26-34.67-4.54-126.6,6.01-254.72-7.54-379.83-6.03-69.34-18.09-143.23-60.3-198.99-3.02,3.03-16.58,12.06-19.59,15.09-21.11,25.64-57.28,150.73-66.33,183.91,4.53,119.06-9.05,239.66-7.53,360.25,0,15.07-22.61,27.13-36.17,31.65-52.76,18.09-111.55,24.12-167.32,18.09-27.14-4.52-57.28-6.03-81.4-21.1-7.53-4.52-16.58-10.57-16.58-19.61-1.5-114.56,10.55-230.62,7.53-345.18,0-3.01-1.5-4.52-1.5-7.54s1.5-6.01,1.5-9.04c-3.02-69.34-7.53-143.18-33.16-208.03-25.63,18.11-51.25,34.67-70.85,58.79-22.61,28.66-37.69,63.31-46.73,99.5-12.05,46.71-13.56,96.47-13.56,146.21,0,1.51-3.02,9.06-3.02,10.55,0,85.92,4.53,171.85,13.57,257.77,1.5,15.07-21.11,27.13-36.18,31.65-40.69,13.57-85.91,18.09-129.63,18.09Z"/>
  <path class="cls-2" d="m4777.13,1752.39c-25.64-1.51-84.43-4.52-98-25.62-4.5-7.54-10.55-42.22-12.06-51.25-48.23,18.07-97.96,27.13-147.72,33.16-61.78,7.52-125.09,7.52-185.38-6.03-28.66-4.52-58.79-13.55-79.89-33.16-25.64-21.12-42.22-52.76-49.76-84.41-4.52-30.15-3.01-61.82,1.51-90.44,13.57-64.83,49.74-128.14,97.96-171.85,36.18-33.16,81.4-55.77,128.14-69.34,72.37-22.61,150.75-27.13,227.61-22.61,3.03-28.62,7.52-55.77,7.52-82.9-1.49-25.62-6.01-51.25-10.55-76.89-6.01-25.62-16.56-51.23-34.67-69.34-15.05,15.09-25.62,34.67-30.13,54.28-4.52,34.67,0,69.34-6.03,102.5-3.01,10.55-22.61,22.61-33.16,27.13-36.16,13.57-75.37,22.61-114.56,25.64-31.67,1.51-64.83,4.52-96.47-3.03-15.09-3.01-31.65-6.01-45.22-15.07-4.52-3.01-10.55-9.06-10.55-15.07,4.52-34.67,1.51-67.83,7.52-100.99,3.03-18.11,7.54-37.7,19.61-52.78,31.67-42.19,78.4-76.87,128.12-96.45,60.31-24.12,125.11-39.21,188.45-43.71,70.84-4.54,144.7-1.51,211.01,24.1,28.64,10.55,57.28,30.15,76.87,52.76,19.61,22.61,31.67,52.74,37.7,81.4,7.52,28.62,12.06,58.77,12.06,88.93-1.51,15.07-10.55,100.99-10.55,116.08-9.04,147.72-15.09,299.94,19.58,444.66,1.51,6.03-3.01,12.06-7.52,16.58-31.67,33.16-146.21,46.73-191.43,43.71Zm-259.28-159.78c45.22-31.65,85.92-69.34,131.14-100.99,0-36.18,0-70.84,1.51-107.02-10.55-6.03-15.09-18.09-24.12-25.62-13.57-10.55-28.64-16.6-45.22-24.12-61.82,58.79-104.01,182.39-63.31,257.75Z"/>
  <path class="cls-2" d="m5159.91,1740.33c-18.09-4.5-37.7-9.04-51.25-22.61-4.52-3.01-7.54-22.61-7.54-28.62-6.03-28.66-9.04-58.79-10.55-87.44-12.06-138.67-12.06-275.84-13.57-414.53,0-78.38-3.01-156.76,0-236.65,1.51-70.86,6.05-141.71,6.05-212.55,0-16.58-3.03-69.32,4.5-82.9,19.61-33.16,108.55-48.25,146.21-51.25,36.18-1.51,72.37-1.51,105.53,4.52,18.09,4.52,40.7,10.55,46.73,27.13,1.51,4.52-3.03,9.06-3.03,15.07,0,7.54,1.51,52.76,1.51,60.31-1.51,107.02-9.04,212.53-9.04,318.06,1.51,168.82,1.51,337.64,12.06,506.46,3.01,49.76,7.52,98,16.56,146.23,3.03,16.58-19.58,28.64-33.16,34.65-66.32,25.64-140.18,34.67-211.01,24.12Z"/>
  <path class="cls-3" d="m3108.8,3026.78c-34.38-5.73-68.78-15.76-96-37.26-18.64-14.34-34.38-34.4-45.85-54.45-60.21-117.5-67.36-259.37-65.92-391.21,1.44-53.02,12.9-365.4,15.76-419.86,1.42-7.15,2.86-37.26,5.73-42.99,4.29-8.59,24.35-20.06,31.52-22.93,67.36-21.49,143.31-25.79,212.07-8.59,12.9,2.88,25.81,7.15,34.4,17.2,4.31,2.86,7.17,8.61,7.17,12.88-5.73,22.93-10.03,140.43-10.03,163.36h209.21c11.47,0,18.62,18.62,21.49,30.08,8.59,38.71,5.73,81.7-2.88,120.38-7.15,32.96-15.74,67.36-30.08,97.44-8.59,15.78-20.06,34.4-37.26,34.4h-170.53c-1.42,68.78,1.44,138.99,10.05,207.79,7.17,54.44,20.06,108.89,42.99,159.05,18.64-31.52,27.23-68.8,35.82-104.61,0-2.86,1.44-11.45,2.88-12.88,2.86-8.61,22.93-18.64,31.52-21.49,34.4-12.9,73.07-18.64,108.91-18.64,40.11-1.42,80.22,0,117.5,14.32,11.47,4.31,28.65,14.34,25.79,27.25-10.03,42.99-20.08,87.4-41.57,124.65-20.06,32.96-50.14,61.63-83.1,81.68-60.17,34.4-133.26,47.28-203.48,51.6-41.55,2.86-84.54,0-126.11-7.17Z"/>
  <path class="cls-3" d="m3653.27,2998.12c-10.03-4.29-28.67-12.9-28.67-24.37,0-233.56-7.15-467.12-7.15-700.72,0-21.49,34.4-34.38,55.89-40.11,61.61-18.62,128.97-24.37,190.57-11.47,58.75-10.03,118.94-11.47,177.69-7.15,50.16,1.42,101.74,11.47,143.29,38.67,30.1,20.06,54.45,54.45,63.06,90.29,5.73,20.06,2.86,44.43-1.44,64.48-4.29,15.74-37.26,28.65-51.6,32.96-44.41,12.88-91.69,21.49-137.56,18.62-28.65-1.44-84.54-4.29-94.57-31.52-1.44-1.44,1.44-10.03,1.44-12.9,4.28-30.08-1.44-57.31-17.22-80.24-14.3,4.29-28.65,8.61-44.41,11.47,1.42,73.09,7.17,528.76,7.17,603.28,0,14.32-17.2,25.79-31.52,31.54-34.4,14.3-71.67,22.91-108.91,24.35-38.69,2.86-78.83,4.29-116.08-7.17Z"/>
  <path class="cls-3" d="m4792.42,3029.64c-24.37-1.44-80.24-4.29-93.15-24.35-4.29-7.17-10.03-40.13-11.47-48.72-45.85,17.18-93.15,25.79-140.43,31.52-58.75,7.15-118.94,7.15-176.25-5.73-27.23-4.29-55.87-12.88-75.95-31.52-24.35-20.08-40.13-50.16-47.28-80.24-4.31-28.67-2.88-58.77,1.44-85.98,12.88-61.63,47.26-121.81,93.13-163.36,34.4-31.52,77.39-53.02,121.81-65.92,68.78-21.49,143.29-25.79,216.38-21.49,2.86-27.21,7.15-53.02,7.15-78.81-1.44-24.35-5.73-48.72-10.03-73.09-5.73-24.35-15.76-48.7-32.96-65.92-14.32,14.34-24.35,32.96-28.67,51.6-4.29,32.96,0,65.92-5.71,97.44-2.88,10.03-21.49,21.49-31.54,25.79-34.38,12.9-71.63,21.49-108.91,24.37-30.08,1.44-61.61,4.29-91.69-2.88-14.34-2.86-30.1-5.71-42.99-14.32-4.31-2.86-10.03-8.61-10.03-14.32,4.28-32.96,1.42-64.48,7.15-96,2.88-17.22,7.17-35.84,18.62-50.18,30.1-40.11,74.53-73.07,121.81-91.69,57.33-22.93,118.94-37.27,179.12-41.55,67.34-4.31,137.56-1.44,200.62,22.91,27.23,10.03,54.45,28.67,73.07,50.16,18.64,21.49,30.1,50.14,35.82,77.39,7.17,27.21,11.47,55.87,11.47,84.54-1.42,14.32-10.03,96-10.03,110.35-8.59,140.43-14.32,285.14,18.64,422.71,1.42,5.73-2.88,11.47-7.17,15.76-30.08,31.52-138.99,44.43-181.98,41.55Zm-246.48-151.9c43.01-30.08,81.68-65.92,124.67-96,0-34.4,0-67.34,1.44-101.74-10.03-5.73-14.32-17.2-22.93-24.35-12.88-10.03-27.23-15.78-42.99-22.93-58.75,55.89-98.86,173.39-60.19,245.03Z"/>
  <path class="cls-2" d="m1341.16,1752.4c-25.64-1.51-84.43-4.53-97.98-25.63-4.52-7.54-10.55-42.2-12.06-51.25-48.23,18.08-97.98,27.13-147.72,33.16-61.8,7.53-125.09,7.53-185.4-6.03-28.64-4.52-58.79-13.56-79.89-33.16-25.64-21.11-42.19-52.75-49.74-84.41-4.52-30.15-3.01-61.81,1.49-90.44,13.57-64.83,49.76-128.13,97.98-171.85,36.18-33.16,81.4-55.77,128.12-69.33,72.37-22.61,150.75-27.14,227.61-22.61,3.03-28.64,7.54-55.78,7.54-82.91-1.49-25.63-6.03-51.25-10.55-76.88-6.03-25.63-16.58-51.25-34.67-69.34-15.07,15.08-25.62,34.67-30.15,54.27-4.5,34.67,0,69.34-6.01,102.5-3.03,10.55-22.61,22.61-33.16,27.13-36.18,13.57-75.39,22.61-114.56,25.63-31.67,1.51-64.83,4.53-96.49-3.02-15.07-3.01-31.65-6.02-45.22-15.07-4.5-3.02-10.55-9.05-10.55-15.08,4.54-34.67,1.51-67.83,7.54-100.99,3.01-18.09,7.54-37.69,19.61-52.76,31.65-42.2,78.38-76.88,128.12-96.47,60.29-24.11,125.11-39.19,188.42-43.71,70.86-4.53,144.7-1.51,211.01,24.11,28.66,10.55,57.28,30.15,76.89,52.76,19.61,22.61,31.67,52.75,37.68,81.39,7.54,28.64,12.06,58.78,12.06,88.94-1.51,15.07-10.55,100.99-10.55,116.07-9.04,147.72-15.07,299.96,19.61,444.67,1.49,6.03-3.01,12.06-7.54,16.58-31.65,33.16-146.21,46.73-191.43,43.72Zm-259.26-159.78c45.22-31.66,85.9-69.34,131.12-100.99,0-36.18,0-70.85,1.51-107.03-10.55-6.03-15.07-18.08-24.12-25.63-13.55-10.55-28.62-16.58-45.22-24.11-61.8,58.78-104.01,182.39-63.29,257.76Z"/>
  <path class="cls-3" d="m1250.97,2970.75c-36.18-1.5-72.35-3.02-104.01-16.58-13.57-6.03-30.13-13.56-31.65-27.14-22.61-223.09-7.54-449.19,0-673.79,1.51-16.58-1.51-36.17,7.52-49.75,22.61-33.16,110.05-40.69,150.75-39.19,31.65,0,64.8,0,96.47,9.05,25.62,6.03,61.8,18.09,49.74,42.2-1.51,4.53-3.01,10.55-3.01,15.08,66.32-22.61,138.67-31.66,208.01-27.14,42.19,1.51,85.92,7.54,125.11,27.14,18.09,9.05,34.67,22.61,49.76,37.69,111.54-34.67,238.16-42.22,352.71-13.57,25.62,7.54,51.25,19.59,72.35,37.69,28.66,24.12,49.76,58.78,63.31,93.46,24.12,64.82,31.67,135.66,36.18,205,6.03,108.53-1.51,217.06,3.01,325.59,0,15.08-21.1,27.14-36.18,31.66-36.16,13.56-75.35,21.11-114.54,21.11-33.16,0-66.34,1.5-96.47-6.03-19.58-6.03-54.26-13.57-54.26-34.67-4.54-126.61,6.01-254.74-7.54-379.86-6.03-69.34-18.09-143.2-60.29-198.97-3.03,3.02-16.6,12.06-19.61,15.08-21.12,25.63-57.28,150.73-66.34,183.9,4.54,119.08-9.04,239.67-7.52,360.26,0,15.07-22.61,27.13-36.18,31.66-52.74,18.08-111.54,24.11-167.31,18.08-27.15-4.52-57.28-6.03-81.4-21.1-7.52-4.53-16.58-10.56-16.58-19.59-1.49-114.56,10.55-230.63,7.54-345.19,0-3.02-1.51-4.52-1.51-7.53s1.51-6.03,1.51-9.05c-3.03-69.33-7.54-143.19-33.16-208.02-25.64,18.09-51.27,34.67-70.86,58.79-22.61,28.64-37.7,63.3-46.73,99.49-12.06,46.72-13.57,96.47-13.57,146.21,0,1.51-3.01,9.05-3.01,10.55,0,85.92,4.52,171.85,13.57,257.77,1.49,15.07-21.12,27.13-36.18,31.65-40.7,13.57-85.92,18.09-129.63,18.09Z"/>
  <path class="cls-2" d="m2768.93,2975.69c9.57,32.94-40.06,58.79-81.94,42.91-97.93-37.14-225.64-104.31-216.75-200.04l3.58-374.77s8.37-138.49,229.6-206.61c41.98-12.92,87.55,12.11,78.87,43.91-34.72,127.23-94.13,416.66-13.36,694.6Z"/>
  <path class="cls-3" d="m2525.17,1698.73c-8.96,32.94,37.49,58.79,76.7,42.91,91.66-37.14,211.19-104.31,202.87-200.04l-3.35-374.77s-7.83-138.49-214.89-206.61c-39.29-12.92,7.91-29.93-53.89-3.47-120.72,51.67,68.17,464.05-7.43,741.98Z"/>
  <circle class="cls-2" cx="2616.33" cy="2087.17" r="104.67"/>
  <g>
    <ellipse class="cls-1" cx="2702.16" cy="1024.78" rx="71.18" ry="88.97"/>
    <path class="cls-3" d="m2702.16,1122.23c-43.92,0-79.66-43.72-79.66-97.45s35.73-97.45,79.66-97.45,79.66,43.72,79.66,97.45-35.73,97.45-79.66,97.45Zm0-177.94c-34.57,0-62.69,36.11-62.69,80.49s28.12,80.49,62.69,80.49,62.69-36.11,62.69-80.49-28.12-80.49-62.69-80.49Z"/>
  </g>
  <g>
    <ellipse class="cls-1" cx="2577.6" cy="1024.78" rx="71.18" ry="88.97"/>
    <path class="cls-3" d="m2577.6,1122.23c-43.92,0-79.66-43.72-79.66-97.45s35.73-97.45,79.66-97.45,79.66,43.72,79.66,97.45-35.73,97.45-79.66,97.45Zm0-177.94c-34.57,0-62.69,36.11-62.69,80.49s28.12,80.49,62.69,80.49,62.69-36.11,62.69-80.49-28.12-80.49-62.69-80.49Z"/>
  </g>
  <circle class="cls-3" cx="2589.64" cy="1051.47" r="17.79"/>
  <circle class="cls-3" cx="2696.4" cy="1051.47" r="17.79"/>
  <path class="cls-1" d="m2656.04,1185.33c-2.23,0-4.45-.08-6.68-.24-48.5-3.45-78.85-43.22-80.12-44.91l10.44-7.84c.28.37,28.21,36.78,70.72,39.74,28.83,2,58.08-11.59,86.92-40.43l9.23,9.23c-29.52,29.52-59.94,44.45-90.51,44.45Z"/>
</svg>