<?xml version="1.0" encoding="UTF-8"?>
<svg id="Layer_1" data-name="Layer 1" xmlns="http://www.w3.org/2000/svg" viewBox="0 0 1080 1080">
  <defs>
    <style>
      .cls-1 {
        fill: #fff;
      }

      .cls-2 {
        fill: #ff6e06;
      }
    </style>
  </defs>
  <rect class="cls-2" x="-38" y="-164" width="1149" height="1313"/>
  <g>
    <path class="cls-1" d="m448.73,808.58c-6.65,24.45,27.83,43.64,56.93,31.85,68.04-27.56,156.76-77.43,150.58-148.48l-2.49-278.18s-5.81-102.8-159.51-153.36c-29.16-9.59,5.87-22.21-40-2.58-89.61,38.36,50.6,344.45-5.51,550.75Z"/>
    <g>
      <ellipse class="cls-1" cx="580.1" cy="308.33" rx="52.83" ry="66.04"/>
      <path class="cls-2" d="m580.1,380.67c-32.6,0-59.13-32.45-59.13-72.34s26.52-72.34,59.13-72.34,59.13,32.45,59.13,72.34-26.52,72.34-59.13,72.34Zm0-132.08c-25.66,0-46.53,26.8-46.53,59.74s20.88,59.74,46.53,59.74,46.53-26.8,46.53-59.74-20.88-59.74-46.53-59.74Z"/>
    </g>
    <g>
      <ellipse class="cls-1" cx="487.65" cy="308.33" rx="52.83" ry="66.04"/>
      <path class="cls-2" d="m487.65,380.67c-32.6,0-59.13-32.45-59.13-72.34s26.52-72.34,59.13-72.34,59.13,32.45,59.13,72.34-26.52,72.34-59.13,72.34Zm0-132.08c-25.66,0-46.53,26.8-46.53,59.74s20.88,59.74,46.53,59.74,46.53-26.8,46.53-59.74-20.88-59.74-46.53-59.74Z"/>
    </g>
    <circle class="cls-2" cx="496.58" cy="328.15" r="13.21"/>
    <circle class="cls-2" cx="575.83" cy="328.15" r="13.21"/>
    <path class="cls-2" d="m545.87,427.51c-1.65,0-3.3-.06-4.96-.18-28.42-2.02-48.44-20.84-56.08-29.3-1.91-2.11-1.58-5.4.7-7.11l.02-.02c1.99-1.5,4.79-1.25,6.47.6,6.7,7.35,24.83,24.44,49.66,26.17,20.27,1.41,40.82-7.57,61.13-26.72,1.91-1.8,4.9-1.78,6.76.08h0c1.93,1.93,1.89,5.07-.09,6.94-20.79,19.62-42.15,29.53-63.62,29.53Z"/>
  </g>
</svg>