<svg width="48" height="48" viewBox="0 0 48 48" fill="none" xmlns="http://www.w3.org/2000/svg">
<rect width="48" height="48" rx="4" fill="#FF6E06"/>
<path d="M19.9234 35.9376C19.6279 37.0242 21.1603 37.8771 22.4536 37.3531C25.4776 36.1282 29.4207 33.9118 29.1461 30.754L29.0354 18.3905C29.0354 18.3905 28.7772 13.8216 21.9461 11.5745C20.6501 11.1482 22.207 10.5873 20.1683 11.4598C16.1856 13.1647 22.4172 26.7687 19.9234 35.9376Z" fill="white"/>
<path d="M25.7621 16.6378C27.0588 16.6378 28.1101 15.3237 28.1101 13.7027C28.1101 12.0817 27.0588 10.7676 25.7621 10.7676C24.4653 10.7676 23.4141 12.0817 23.4141 13.7027C23.4141 15.3237 24.4653 16.6378 25.7621 16.6378Z" fill="white"/>
<path d="M25.762 16.9185C24.3131 16.9185 23.134 15.4763 23.134 13.7034C23.134 11.9305 24.3127 10.4883 25.762 10.4883C27.2114 10.4883 28.39 11.9305 28.39 13.7034C28.39 15.4763 27.2114 16.9185 25.762 16.9185ZM25.762 11.0483C24.6216 11.0483 23.694 12.2394 23.694 13.7034C23.694 15.1674 24.622 16.3585 25.762 16.3585C26.902 16.3585 27.83 15.1674 27.83 13.7034C27.83 12.2394 26.902 11.0483 25.762 11.0483Z" fill="#FF6E06"/>
<path d="M21.6532 16.6378C22.9499 16.6378 24.0012 15.3237 24.0012 13.7027C24.0012 12.0817 22.9499 10.7676 21.6532 10.7676C20.3564 10.7676 19.3052 12.0817 19.3052 13.7027C19.3052 15.3237 20.3564 16.6378 21.6532 16.6378Z" fill="white"/>
<path d="M21.6531 16.9185C20.2043 16.9185 19.0251 15.4763 19.0251 13.7034C19.0251 11.9305 20.2038 10.4883 21.6531 10.4883C23.1025 10.4883 24.2811 11.9305 24.2811 13.7034C24.2811 15.4763 23.1025 16.9185 21.6531 16.9185ZM21.6531 11.0483C20.5127 11.0483 19.5851 12.2394 19.5851 13.7034C19.5851 15.1674 20.5131 16.3585 21.6531 16.3585C22.7931 16.3585 23.7211 15.1674 23.7211 13.7034C23.7211 12.2394 22.7931 11.0483 21.6531 11.0483Z" fill="#FF6E06"/>
<path d="M22.05 15.1723C22.3743 15.1723 22.6371 14.9094 22.6371 14.5852C22.6371 14.2609 22.3743 13.998 22.05 13.998C21.7257 13.998 21.4629 14.2609 21.4629 14.5852C21.4629 14.9094 21.7257 15.1723 22.05 15.1723Z" fill="#FF6E06"/>
<path d="M25.5722 15.1723C25.8965 15.1723 26.1593 14.9094 26.1593 14.5852C26.1593 14.2609 25.8965 13.998 25.5722 13.998C25.248 13.998 24.9851 14.2609 24.9851 14.5852C24.9851 14.9094 25.248 15.1723 25.5722 15.1723Z" fill="#FF6E06"/>
<path d="M24.2406 19.0005C24.1673 19.0005 24.094 18.9979 24.0202 18.9925C22.7571 18.9028 21.8673 18.0663 21.5277 17.6903C21.4429 17.5965 21.4575 17.4503 21.5589 17.3743L21.5597 17.3734C21.6482 17.3068 21.7726 17.3179 21.8473 17.4001C22.1451 17.7268 22.9509 18.4863 24.0544 18.5632C24.9553 18.6259 25.8686 18.2268 26.7713 17.3756C26.8562 17.2956 26.9891 17.2965 27.0717 17.3792C27.1575 17.465 27.1557 17.6045 27.0677 17.6876C26.1437 18.5596 25.1944 19.0001 24.2402 19.0001L24.2406 19.0005Z" fill="#FF6E06"/>
</svg>
